<?xml version="1.0" encoding="utf-8"?>
<!-- Generator: Adobe Illustrator 22.0.1, SVG Export Plug-In . SVG Version: 6.00 Build 0)  -->
<svg version="1.1" id="Camada_1" xmlns="http://www.w3.org/2000/svg" xmlns:xlink="http://www.w3.org/1999/xlink" x="0px" y="0px"
	 viewBox="0 0 320.7 102.1" style="enable-background:new 0 0 320.7 102.1;" xml:space="preserve">
<style type="text/css">
	.st0{fill-rule:evenodd;clip-rule:evenodd;fill:#242B30;}
	.st1{fill-rule:evenodd;clip-rule:evenodd;fill:#FAB500;}
</style>
<g>
	<path class="st0" d="M137.2,79.7c-0.9-0.3-2-0.4-3.2-0.4h-10.9c-0.4,0-0.7,0-1-0.1c-0.3-0.1-0.6-0.2-0.8-0.3
		c-0.4-0.3-0.6-0.8-0.6-1.5c0-0.3,0.1-0.6,0.2-0.9c0.1-0.3,0.3-0.5,0.5-0.6c0.4-0.3,1-0.4,1.8-0.4h13.8l3.7-5.8h-17
		c-0.8,0-1.4,0-2.1,0.1c-0.6,0.1-1.2,0.2-1.8,0.4c-0.5,0.2-1,0.4-1.4,0.6c-0.4,0.2-0.8,0.5-1.1,0.8c-0.3,0.3-0.6,0.7-0.9,1
		c-0.2,0.4-0.4,0.8-0.6,1.2c-0.3,0.9-0.5,1.9-0.5,3c0,0.5,0,1,0.1,1.4c0.1,0.5,0.2,0.9,0.3,1.3c0.1,0.4,0.3,0.8,0.5,1.1
		c0.2,0.4,0.5,0.7,0.8,1c0.3,0.3,0.6,0.5,1,0.8c0.4,0.2,0.8,0.4,1.3,0.6c0.9,0.3,2,0.5,3.3,0.5h10.9c0.4,0,0.7,0,1,0.1
		c0.3,0.1,0.6,0.2,0.8,0.3c0.2,0.2,0.4,0.4,0.5,0.6c0.1,0.3,0.1,0.6,0.1,0.9c0,0.3,0,0.6-0.1,0.9c-0.1,0.3-0.3,0.5-0.5,0.7
		c-0.4,0.3-1,0.5-1.8,0.5h-15.1l-3.7,5.7h18.3c0.8,0,1.4,0,2.1-0.1c0.6-0.1,1.2-0.2,1.8-0.4c0.5-0.2,1-0.4,1.4-0.6
		c0.4-0.2,0.8-0.5,1.2-0.9c0.3-0.3,0.6-0.7,0.9-1.1c0.2-0.4,0.4-0.8,0.6-1.3c0.2-0.5,0.3-1,0.4-1.5c0.1-0.5,0.1-1.1,0.1-1.7
		c0-1.1-0.2-2-0.5-2.8c-0.3-0.8-0.8-1.4-1.4-2C138.9,80.3,138.1,79.9,137.2,79.7L137.2,79.7z M167.2,91c2-1.8,3-4.5,3-8V69.6h-5.7
		V83c0,0.4,0,0.8-0.1,1.2c-0.1,0.4-0.1,0.7-0.3,1c-0.1,0.3-0.3,0.6-0.4,0.9c-0.2,0.3-0.4,0.5-0.7,0.7c-0.3,0.2-0.6,0.4-0.9,0.5
		c-0.3,0.1-0.7,0.3-1.1,0.4c-0.8,0.2-1.8,0.3-3.1,0.3c-0.8,0-1.5,0-2.2-0.1c-0.7,0-1.2-0.1-1.8-0.2c-0.5-0.1-1-0.2-1.4-0.3
		c-0.4-0.1-0.8-0.3-1.1-0.5c-0.6-0.4-1-0.9-1.2-1.6c-0.1-0.3-0.2-0.7-0.2-1.1c-0.1-0.4-0.1-0.8-0.1-1.3V69.6h-5.7V83
		c0,0.9,0.1,1.8,0.2,2.5c0.1,0.8,0.3,1.5,0.6,2.2c0.3,0.7,0.6,1.3,1,1.8c0.4,0.6,0.9,1.1,1.4,1.5c0.6,0.4,1.2,0.8,1.9,1.2
		s1.5,0.6,2.3,0.8c0.9,0.2,1.8,0.4,2.8,0.5c1,0.1,2.1,0.2,3.4,0.2C162,93.7,165.1,92.8,167.2,91L167.2,91z M199.6,82
		c0.4-1.1,0.6-2.3,0.6-3.6c0-0.7-0.1-1.3-0.2-1.9c-0.1-0.6-0.3-1.2-0.5-1.7c-0.2-0.5-0.5-1-0.8-1.5c-0.3-0.5-0.7-0.9-1.1-1.3
		c-0.4-0.4-0.9-0.7-1.4-1c-0.5-0.3-1-0.6-1.6-0.8c-1.2-0.4-2.6-0.7-4.1-0.7h-12.5l-3.8,5.8h16.9c0.5,0,1,0.1,1.4,0.2
		c0.4,0.1,0.8,0.3,1.1,0.6c0.3,0.3,0.5,0.6,0.7,1c0.1,0.4,0.2,0.8,0.2,1.2c0,0.5-0.1,0.9-0.2,1.2c-0.1,0.4-0.4,0.7-0.7,1
		c-0.6,0.6-1.4,0.8-2.4,0.8h-17.1v11.9h5.7v-6.2h10.8c0.8,0,1.5-0.1,2.2-0.2c0.7-0.1,1.3-0.3,1.9-0.5c0.6-0.2,1.1-0.5,1.7-0.8
		c0.5-0.3,1-0.6,1.4-1C198.6,84,199.2,83.1,199.6,82L199.6,82z M224,93.3h7.7l-3.4-4.3c-0.4-0.4-0.7-0.8-0.9-1.1
		c-0.3-0.3-0.5-0.6-0.7-0.9c-0.2-0.2-0.4-0.5-0.6-0.7c-0.2-0.2-0.4-0.4-0.5-0.5l-0.4-0.3l0.5-0.1c0.4-0.1,0.8-0.2,1.1-0.4
		c0.4-0.2,0.7-0.4,1-0.6h0c0.3-0.2,0.6-0.5,0.9-0.8c0.3-0.3,0.5-0.6,0.7-0.9c0.2-0.3,0.4-0.7,0.6-1c0.2-0.4,0.3-0.8,0.4-1.2
		c0.1-0.4,0.2-0.8,0.3-1.3c0.1-0.4,0.1-0.9,0.1-1.3c0-0.9-0.1-1.6-0.2-2.3c-0.2-0.7-0.4-1.3-0.7-1.8c-0.3-0.5-0.7-1-1.1-1.5
		c-0.4-0.4-0.8-0.8-1.3-1.1c-0.5-0.3-1-0.6-1.5-0.8c-0.5-0.2-1.1-0.4-1.7-0.5c-0.6-0.1-1.2-0.2-1.8-0.3c-0.6-0.1-1.1-0.1-1.7-0.1
		h-12.8l-3.7,5.8h17c0.6,0,1.1,0.1,1.5,0.2c0.5,0.1,0.8,0.3,1.2,0.6c0.3,0.3,0.6,0.6,0.8,1c0.2,0.4,0.2,0.8,0.2,1.3
		c0,0.5-0.1,0.9-0.3,1.2c-0.2,0.4-0.5,0.7-0.8,0.9c-0.4,0.3-0.8,0.5-1.2,0.6c-0.4,0.1-0.9,0.2-1.4,0.2h-17.3v11.9h5.7v-6.4h9.9
		l0.1,0.1L224,93.3z M253.7,93.3l3.7-5.7h-16.9v-3.8h12.5l3.3-5h-21.5v14.5H253.7z M274.2,79.8l-0.6-1.3l-3.2-6.8v0
		c-0.2-0.4-0.4-0.7-0.6-1c-0.2-0.3-0.5-0.6-0.7-0.8c-0.2-0.2-0.5-0.4-0.8-0.5c-0.3-0.1-0.7-0.2-1-0.2c-0.4,0-0.7,0.1-1,0.2
		c-0.3,0.1-0.6,0.3-0.9,0.6c-0.3,0.2-0.6,0.6-0.8,1c-0.2,0.4-0.4,0.9-0.5,1.4l-5.1,21h5.6l1.9-8.2c0.2-0.7,0.3-1.4,0.4-1.9
		c0.1-0.6,0.3-1.2,0.4-1.7c0.1-0.5,0.2-1,0.3-1.5c0.1-0.5,0.2-1,0.3-1.5l0.1-0.9l0.3,0.9l0.5,1.3c0.2,0.4,0.4,0.9,0.6,1.4
		c0.1,0.2,0.2,0.5,0.4,0.8c0.2,0.4,0.3,0.7,0.4,0.9c0.2,0.4,0.3,0.7,0.4,1c0.2,0.4,0.3,0.8,0.5,1.2l2.7,6.1v0
		c0.1,0.3,0.3,0.6,0.4,0.8c0.1,0.2,0.3,0.4,0.4,0.6c0.1,0.2,0.3,0.3,0.4,0.4c0.1,0.1,0.3,0.2,0.4,0.3c0.1,0.1,0.3,0.2,0.4,0.2
		c0.1,0.1,0.3,0.1,0.4,0.1c0.1,0,0.3,0,0.5,0.1c0.2,0,0.3,0,0.5,0c0.2,0,0.4,0,0.5,0c0.2,0,0.3,0,0.5-0.1c0.1,0,0.3-0.1,0.4-0.1
		c0.1-0.1,0.3-0.1,0.4-0.2c0.1-0.1,0.3-0.2,0.4-0.3c0.1-0.1,0.3-0.3,0.4-0.4c0.1-0.2,0.3-0.4,0.4-0.6c0.1-0.2,0.3-0.5,0.4-0.8l0,0
		l2.7-6.1c0.3-0.7,0.6-1.5,0.9-2.2c0.3-0.7,0.5-1.2,0.7-1.7c0.1-0.4,0.4-0.9,0.6-1.5c0.2-0.5,0.4-1,0.5-1.3l0.3-0.8l0.1,0.9
		c0.1,0.5,0.2,1,0.3,1.5c0.1,0.5,0.2,1,0.3,1.5c0.1,0.6,0.2,1.1,0.4,1.7c0.1,0.5,0.3,1.2,0.4,1.9v0l1.9,8.2h5.7l-5-21
		c-0.1-0.5-0.3-1-0.5-1.4c-0.2-0.4-0.5-0.7-0.8-1c-0.6-0.5-1.2-0.8-2-0.8c-0.4,0-0.7,0.1-1.1,0.2c-0.3,0.1-0.6,0.3-0.8,0.5
		c-0.3,0.2-0.5,0.5-0.7,0.8c-0.2,0.3-0.4,0.6-0.6,1l-3.2,6.9l-0.6,1.3v0l-0.5,1.1c-0.2,0.4-0.3,0.7-0.5,1c-0.1,0.3-0.3,0.6-0.4,0.9
		c-0.1,0.3-0.3,0.6-0.4,0.8c-0.1,0.2-0.2,0.5-0.3,0.7c-0.2,0.4-0.4,0.9-0.5,1.3l-0.2,0.6l-0.2-0.6l-0.6-1.3
		c-0.1-0.2-0.2-0.5-0.3-0.7c-0.1-0.2-0.2-0.5-0.4-0.8c-0.1-0.3-0.3-0.6-0.4-0.9c-0.1-0.3-0.3-0.6-0.5-1L274.2,79.8z M317,93.3
		l3.7-5.7h-16.9v-3.8h12.5l3.2-5h-21.5v14.5H317z M317,93.3"/>
	<path class="st1" d="M298.1,69.6v5.8h18.9l3.7-5.8H298.1z M234.7,69.6v5.8h18.9l3.7-5.8H234.7z M234.7,69.6"/>
	<path class="st0" d="M217,8.4c11.6,0,20.4,2,26.2,5.9c5.8,4,8.8,10.2,8.8,18.7c0,8.6-2.9,14.8-8.7,18.8c-5.8,4-14.6,5.9-26.2,5.9
		c-11.7,0-20.5-2-26.3-5.9c-5.8-4-8.7-10.2-8.7-18.8c0-8.5,2.9-14.8,8.7-18.7C196.6,10.4,205.3,8.4,217,8.4L217,8.4z M301.6,57
		L256.8,9.5l-0.3-0.3h18.6l43.3,45.4l2,2l0.3,0.3H301.6z M168.6,32.4c2.1,0.6,3.9,1.8,5.3,3.6c1.5,1.8,2.2,4.1,2.2,7
		c0,2-0.3,3.8-0.9,5.5c-0.6,1.7-1.7,3.2-3.1,4.4c-1.5,1.2-3.5,2.2-6,2.9c-2.5,0.7-5.6,1.1-9.4,1.1h-42V27.9h42.3
		c1.1,0,2.1-0.2,2.9-0.7c0.8-0.4,1.3-1.3,1.3-2.5c0-1.2-0.4-2-1.3-2.4c-0.9-0.4-1.8-0.6-2.9-0.6h-42.3l10-12.4h31.7
		c2.9,0,5.4,0.3,7.8,0.8c2.3,0.5,4.3,1.4,5.9,2.5c1.6,1.1,2.9,2.5,3.8,4.1c0.9,1.6,1.3,3.6,1.3,5.8c0,1.4-0.2,2.7-0.6,3.8
		c-0.4,1.1-0.9,2.1-1.5,2.9c-0.6,0.8-1.3,1.5-2.1,2.1C170.2,31.7,169.4,32.1,168.6,32.4L168.6,32.4z M129.5,38.1v6.6h27.2
		c1.6,0,2.8-0.3,3.5-0.9c0.7-0.6,1.1-1.4,1.1-2.5c0-1.1-0.4-1.8-1.1-2.4c-0.7-0.5-1.9-0.8-3.5-0.8H129.5z M217,45.4
		c3.7,0,6.9-0.2,9.4-0.5c2.6-0.3,4.7-0.9,6.3-1.8c1.6-0.9,2.8-2.2,3.5-3.8c0.7-1.6,1.1-3.7,1.1-6.3c0-2.6-0.4-4.7-1.1-6.3
		c-0.7-1.6-1.9-2.8-3.5-3.7c-1.6-0.9-3.7-1.5-6.3-1.8c-2.6-0.3-5.7-0.5-9.4-0.5c-3.7,0-6.9,0.2-9.4,0.5c-2.6,0.3-4.7,0.9-6.2,1.8
		c-1.6,0.9-2.8,2.1-3.5,3.7c-0.7,1.6-1.1,3.7-1.1,6.3c0,2.6,0.4,4.7,1.1,6.3c0.7,1.6,1.9,2.8,3.5,3.8c1.6,0.9,3.7,1.5,6.2,1.8
		C210.1,45.2,213.2,45.4,217,45.4L217,45.4z M217,45.4"/>
	<path class="st1" d="M300.4,30.7l20.1-21.2l0.3-0.3h-18.6l-11.1,11.7L300.4,30.7z M275.6,57l10.7-11.3l-9.4-10l-18.1,19l-2,2
		l-0.3,0.3H275.6z M275.6,57"/>
	<path class="st1" d="M59.8,0H11C5,0,0,5,0,11v24.7c2.4-2.1,4.9-3.9,7-5.5c1.8-1.3,3.5-2.3,5.2-3.5c0.8-0.6,1.7-1,2.6-1.6
		c1-0.6,1.8-1.2,2.7-1.7c3.7-2,7.3-4.3,11-6.3c1.8-1,3.7-2,5.5-3l11.2-5.9c1.9-1.1,3.7-1.9,5.6-3l8.1-4.6C59.3,0.4,59.6,0.2,59.8,0
		L59.8,0z M11,102.1h31.3c3.2-2.6,8.2-4.7,11.2-7.3c4.2-3.7-1.8-6.3-3.5-7.1c-7.6-3.6-15.4-6.8-23.1-9.6c-2.1-0.8-3.9-1.5-5.9-2.4
		C13.6,72.4,7.1,69.8,0,65.1v26C0,97.2,5,102.1,11,102.1L11,102.1z M48.2,102.1l0.8-0.5c0.4-0.3,0.9-0.6,1.5-1
		c4.3-2.6,11.3-7,12.2-9.9c-1.1-1.1-4.7-3.3-8.3-5.5c-4-2.4-8.1-4.7-9.5-5.5h0L17,64.1l0,0c-0.2-0.1-0.4-0.2-0.7-0.4
		c-2.7-1.5-7.7-4.2-6.2-10.5c3.6-15.5,56-38.4,71.3-45c0.7-0.3,1.4-0.6,1.9-0.8c0.8-0.4,1.6-0.7,2.4-1.1c2.5-1.1,4.9-2.2,7.4-3.2
		L97,1.3l0.3-0.1l0.3,0.2c0.4,0.2,0.7,0.5,1.1,0.8c0.3,0.3,0.7,0.6,1,0.9l0.6,0.6L99.3,4c-7.2,2.9-14.5,6-21.8,9.2
		c-6.8,3-13.6,6.1-20.1,9.1l-0.3,0.1c-6.6,3.1-45.3,21.3-45.6,32.7c0.4,3.5,2.8,4.9,4.7,6c0.2,0.1,0.5,0.3,0.5,0.3
		c5.5,3.3,11,6.4,16.5,9.5c8.1,4.6,16.3,9.3,24.4,14.2c0.2,0.1,0.5,0.3,0.9,0.5c1.9,1,5.2,2.8,5.6,5.2l0,0.1l0,0.1
		c-0.8,3.7-6.2,6.8-9,8.5c-0.4,0.2-0.8,0.4-1,0.6c-0.6,0.4-1.3,0.8-1.9,1.2c-0.4,0.3-0.8,0.5-1.1,0.7H48.2z M56.1,102.1h35.1
		c6.1,0,11-5,11-11V18C97.1,20,92,21.9,87,23.8c-7.3,2.7-16.1,6-23.3,9.2c-6.3,2.8-12.8,5.4-19,8.5c-4,2-12.6,6.4-15.8,10.8
		c-3.4,4.6,2.4,7.1,3.9,8.2c1.9,1.3,3.8,2.5,5.8,3.8L67,83.7c1.6,1.2,4.5,2.5,4.9,5.8c-0.4,4-3.7,5.8-5.5,7.1c-2.2,1.6-4.6,2.8-7,4
		C58.3,101.1,57.2,101.6,56.1,102.1L56.1,102.1z M56.1,102.1"/>
</g>
</svg>
